FFmpeg version SVN-r25716, Copyright (c) 2000-2010 the FFmpeg developers  built on Nov 10 2010 12:23:18 with gcc 4.1.2 20080704 (Red Hat 4.1.2-48)  configuration: --enable-libmp3lame --enable-shared --disable-mmx --arch=x86_64  libavutil     50.33. 0 / 50.33. 0  libavcore      0.12. 1 /  0.12. 1  libavcodec    52.94. 4 / 52.94. 4  libavformat   52.84. 0 / 52.84. 0  libavdevice   52. 2. 2 / 52. 2. 2  libavfilter    1.59. 0 /  1.59. 0  libswscale     0.12. 0 /  0.12. 0Input #0, mov,mp4,m4a,3gp,3g2,mj2, from '/RAID10/data/converted_video_files/7806.mov':  Metadata:    major_brand     : qt      minor_version   : 512    compatible_brands: qt      encoder         : Lavf52.39.0    encoder-eng     : Lavf52.39.0  Duration: 00:00:07.90, start: 0.000000, bitrate: 1148 kb/s    Stream #0.0(eng): Video: mpeg4, yuv420p, 800x720 [PAR 1:1 DAR 10:9], 1146 kb/s, 30 fps, 30 tbr, 30 tbn, 30 tbc[buffer @ 0x19e2fa0] w:800 h:720 pixfmt:yuv420pOutput #0, flv, to '/RAID10/data/converted_video_files/7806.flv':  Metadata:    encoder         : Lavf52.84.0    Stream #0.0(eng): Video: flv, yuv420p, 800x720 [PAR 1:1 DAR 10:9], q=2-31, 600 kb/s, 1k tbn, 24 tbcStream mapping:  Stream #0.0 -> #0.0Press [q] to stop encodingframe=   27 fps=  0 q=25.6 size=     279kB time=1.12 bitrate=2032.5kbits/s dup=0 drop=6    frame=   57 fps= 55 q=21.1 size=     360kB time=2.38 bitrate=1241.5kbits/s dup=0 drop=14    frame=   90 fps= 58 q=29.2 size=     502kB time=3.75 bitrate=1097.5kbits/s dup=0 drop=22    frame=  128 fps= 62 q=21.3 size=     611kB time=5.33 bitrate= 937.9kbits/s dup=0 drop=32    frame=  174 fps= 68 q=26.9 size=     756kB time=7.25 bitrate= 854.6kbits/s dup=0 drop=43    frame=  190 fps= 70 q=26.8 Lsize=     799kB time=7.92 bitrate= 827.0kbits/s dup=0 drop=47    video:796kB audio:0kB global headers:0kB muxing overhead 0.398666%